<svg xmlns="http://www.w3.org/2000/svg" enable-background="new 0 0 24 24" viewBox="0 0 24 24"><path d="M17.059 21.306c-.365 0-.686-.267-.741-.64-.061-.409.222-.791.632-.853l5.464-.815-1.452-11.38c-.053-.411.238-.786.649-.839.419-.044.786.239.839.649l1.545 12.107c.052.404-.229.776-.634.837l-6.19.925C17.133 21.303 17.096 21.306 17.059 21.306zM3.02 23.306c-.163 0-.322-.053-.453-.152-.159-.121-.265-.301-.29-.499L.007 5.474c-.054-.407.229-.782.636-.841l10.51-1.527c.404-.051.79.224.85.635.06.409-.225.79-.635.85L1.591 6.011l2.073 15.695 6.06-.867c.412-.071.79.226.849.636s-.226.79-.636.849l-6.811.975C3.091 23.303 3.055 23.306 3.02 23.306z"/><path d="M13.569,23.939c-0.295,0-0.623-0.049-0.983-0.147c-1.893-0.52-1.594-1.869-1.434-2.595c0.069-0.314,0.465-1.463,1.282-3.823c1.375-3.971,3.675-10.616,3.803-11.969c0.005-0.382,0.025-1.459-0.635-2.271c-0.493-0.49-1.057-0.595-1.908-0.433c-0.271,0.052-0.55,0.105-0.81,0.105C12.842,2.81,12.712,2.84,12.622,2.87c-0.532,0.166-1.088-0.256-1.088-0.812c0-0.008,0-0.015,0-0.022c-0.004-0.01-0.009-0.02-0.013-0.029c-0.136-0.326-0.046-0.702,0.232-0.98c0.141-0.141,0.331-0.22,0.53-0.22c-0.05,0,0.015-0.024,0.039-0.038c0.057-0.058,0.052-0.047,0.124-0.083c0.479-0.241,0.835-0.354,1.255-0.46c0.823-0.277,1.845-0.355,3.065-0.219c0.547-0.01,1.339-0.005,2.055,0.235c0.641,0.215,1.368,0.458,1.993,1.086c0.301,0.303,0.504,0.383,0.569,0.383c0.166,0,0.228-0.025,0.229-0.025c0.141-0.143,0.271-0.176,0.471-0.176c0.134,0,1.27,0.16,1.631,0.521c0.585,0.59,0.086,2.158,0.081,2.174c-0.438,1.326-0.82,1.82-1.411,1.82c-0.442,0-1.433-0.246-1.825-0.837C20.512,5.106,20.45,5.02,20.284,5.02c-0.012,0.008-0.114,0.068-0.189,0.113c-0.087,0.052-0.181,0.108-0.289,0.165c-1.417,1.352-4.315,15.618-4.579,17.474c-0.011,0.079-0.035,0.156-0.07,0.229C14.845,23.626,14.312,23.939,13.569,23.939z M12.542,22.157c0.001,0,0.078,0.088,0.44,0.188c0.415,0.115,0.682,0.127,0.791,0.036c0.204-1.132,1.363-7.358,2.702-12.267c-0.706,2.19-1.642,4.912-2.623,7.75c-0.606,1.752-1.18,3.406-1.235,3.656C12.515,21.982,12.526,22.117,12.542,22.157L12.542,22.157z M15.798,1.444c0.322,0.166,0.627,0.396,0.918,0.688c1.058,1.294,1.029,2.784,1.02,3.274c0,0.019-0.003,0.121-0.004,0.14C17.7,5.87,17.583,6.395,17.397,7.078c0.521-1.507,1.044-2.621,1.525-2.997c0.039-0.03,0.081-0.057,0.125-0.079c0.106-0.054,0.197-0.108,0.278-0.157c0.256-0.152,0.545-0.325,0.958-0.325c0.756,0,1.271,0.419,1.515,0.815c0.061,0.042,0.174,0.089,0.289,0.126c0.077-0.162,0.177-0.404,0.284-0.729c0.074-0.223,0.108-0.455,0.122-0.632c-0.082-0.021-0.168-0.042-0.242-0.059c-0.238,0.111-0.528,0.168-0.867,0.168c-0.539,0-1.089-0.277-1.633-0.825c-0.375-0.376-0.853-0.536-1.406-0.722c-0.483-0.162-1.109-0.162-1.661-0.162C16.369,1.467,16.074,1.448,15.798,1.444z"/><path d="M18.96 17.93c-.215 0-.429-.093-.577-.271l-2.68-3.229c-.265-.318-.221-.791.099-1.056.317-.265.79-.221 1.056.099l2.68 3.229c.265.318.221.791-.099 1.056C19.299 17.873 19.129 17.93 18.96 17.93zM14.95 13.09c-.215 0-.429-.093-.577-.271l-4.78-5.76C9.328 6.74 9.372 6.268 9.691 6.003c.317-.264.79-.221 1.056.099l4.78 5.76c.265.318.221.791-.099 1.056C15.289 13.033 15.119 13.09 14.95 13.09zM6.005 20.125c-.088 0-.177-.016-.264-.048-.388-.146-.584-.578-.438-.966L9.09 9.046c.146-.388.58-.581.966-.438.388.146.584.578.438.966L6.707 19.639C6.594 19.939 6.308 20.125 6.005 20.125z"/><path d="M16.609 13.34c-.36 0-.679-.261-.739-.628-.067-.409.21-.795.618-.862l2.43-.399c.424-.069.795.211.862.618.067.409-.21.795-.618.862l-2.43.399C16.69 13.337 16.649 13.34 16.609 13.34zM4.199 15.39c-.36 0-.679-.261-.739-.628-.067-.409.21-.795.618-.862l10.56-1.739c.403-.064.795.21.862.618.067.409-.21.795-.618.862L4.322 15.38C4.281 15.387 4.24 15.39 4.199 15.39z"/></svg>